<?xml version="1.0" encoding="UTF-8"?>
<svg width="54px" height="48px" viewBox="0 0 54 48" version="1.1" xmlns="http://www.w3.org/2000/svg" xmlns:xlink="http://www.w3.org/1999/xlink">
    <title>logo 黑方tn</title>
    <g id="Page-1" stroke="none" stroke-width="1" fill="none" fill-rule="evenodd">
        <g id="编组" transform="translate(0.000000, -3.000000)" fill-rule="nonzero">
            <g id="logo">
                <polygon id="logo-bg" points="53.9994469 8.51785352 53.9994469 0 -3.74696433e-16 0 -3.74696433e-16 8.51785352 -3.74696433e-16 45.4821364 -3.74696433e-16 54 53.9994469 54 53.9994469 45.4821364"></polygon>
                <path d="M53.9994469,10.5714254 C53.9994469,6.38094919 50.1959114,3 45.4816742,3 C45.4816742,3 8.51776695,3 8.51776695,3 C3.80352902,3 0,6.38094919 0,10.5714254 C0,10.5714254 0,43.4285657 0,43.4285657 C0,47.6190421 3.80352902,51 8.51776695,51 C8.51776695,51 45.4816742,51 45.4816742,51 C50.1959114,51 54.0530205,47.6190421 53.9994469,43.4285657 C53.9994469,43.4285657 53.9994469,10.5714254 53.9994469,10.5714254 Z" id="Vector" fill="#333333"></path>
                <g id="Group" transform="translate(13.553711, 11.393799)" fill="#FFFFFF">
                    <path d="M4.23210001,18.5726013 C4.23210001,20.6951847 5.73208332,22.4800816 7.82134724,23.0107269 C8.03563118,23.0589676 8.57134247,23.1554508 8.67848492,23.1554508 C9.69633102,23.3001728 10.4998913,24.0720253 10.4998913,25.0368347 C10.4998913,26.0981274 9.58918953,26.9182129 8.41063023,26.9182129 C8.19634724,26.9182129 7.87492132,26.8699703 7.87492132,26.8699703 C3.42853856,26.2910824 0,22.81777 0,18.6208439 C0,18.5243626 0,1.83314133 0,1.83314133 C0.0535708778,0.820090413 0.964276671,0 2.08926511,0 C3.21425343,0 4.17853022,0.868333876 4.17853022,1.88138473 C4.17853022,1.88138473 4.17853022,9.06921959 4.17853022,9.06921959 C4.17853022,9.06921959 8.41063023,9.06921959 8.41063023,9.06921959 C9.58918953,9.06921959 10.4998913,9.88930511 10.4998913,10.9505968 C10.4998913,12.0118885 9.58918953,12.8319817 8.41063023,12.8319817 C8.41063023,12.8319817 4.23210001,12.7355022 4.23210001,12.7355022 C4.23210001,12.7355022 4.23210001,18.5243607 4.23210001,18.5726013 Z" id="Vector"></path>
                    <path d="M30.3749619,25.1332493 C30.3749619,26.1462994 29.4642544,26.9663906 28.3392668,26.9663906 C27.2142782,26.9663906 26.3035717,26.1462994 26.3035717,25.1332493 C26.3035717,25.1332493 26.3035717,17.3665214 26.3035717,17.3665214 C26.3035717,15.0027356 24.2143059,13.1213536 21.5893326,13.1213536 C18.9643588,13.1213536 16.8751011,15.0027356 16.8751011,17.3665214 C16.8751011,17.3665214 16.8751011,25.1332493 16.8751011,25.1332493 C16.8751011,26.1462994 15.9643946,26.9663906 14.839406,26.9663906 C13.7144176,26.9663906 12.8037109,26.1462994 12.8037109,25.1332493 C12.8037109,25.1332493 12.8037109,17.3182855 12.8037109,17.3182855 C12.8572818,12.9766381 16.821527,9.45507812 21.6429062,9.45507812 C26.5178566,9.45507812 30.4821033,12.9766333 30.3749619,17.3665214 C30.3749619,17.414762 30.3749619,25.1332493 30.3749619,25.1332493 Z" id="Vector"></path>
                </g>
            </g>
        </g>
    </g>
</svg>