<?xml version="1.0" encoding="UTF-8"?>
<svg width="26px" height="26px" viewBox="0 0 26 26" version="1.1" xmlns="http://www.w3.org/2000/svg" xmlns:xlink="http://www.w3.org/1999/xlink">
    <title>形状结合</title>
    <g id="V2.5.3" stroke="none" stroke-width="1" fill="none" fill-rule="evenodd">
        <path d="M13,0 C20.1797017,0 26,5.82029825 26,13 C26,20.1797017 20.1797017,26 13,26 C5.82029825,26 0,20.1797017 0,13 C0,5.82029825 5.82029825,0 13,0 Z M8.84293345,8.03868057 C6.0815097,8.03868057 3.84293345,10.2772568 3.84293345,13.0386806 C3.84293345,15.8001043 6.0815097,18.0386806 8.84293345,18.0386806 C11.6043572,18.0386806 13.8429334,15.8001043 13.8429334,13.0386806 C13.8429334,10.2772568 11.6043572,8.03868057 8.84293345,8.03868057 Z M16.8456534,8.4183165 C15.4649415,8.4183165 14.3456534,10.2060355 14.3456534,12.9674593 C14.3456534,15.728883 15.4649415,17.6562671 16.8456534,17.6562671 C18.2263652,17.6562671 19.3456534,15.728883 19.3456534,12.9674593 C19.3456534,10.2060355 18.2263652,8.4183165 16.8456534,8.4183165 Z M20.9346637,9.03868057 C20.3823789,9.03868057 19.9346637,10.8295416 19.9346637,13.0386806 C19.9346637,15.2478196 20.3823789,17.0386806 20.9346637,17.0386806 C21.4869484,17.0386806 21.9346637,15.2478196 21.9346637,13.0386806 C21.9346637,10.8295416 21.4869484,9.03868057 20.9346637,9.03868057 Z" id="形状结合" fill="#999999"></path>
    </g>
</svg>