<?xml version="1.0" encoding="UTF-8"?>
<svg width="26px" height="26px" viewBox="0 0 26 26" version="1.1" xmlns="http://www.w3.org/2000/svg" xmlns:xlink="http://www.w3.org/1999/xlink">
    <title>discord</title>
    <g id="一站式1.0" stroke="none" stroke-width="1" fill="none" fill-rule="evenodd">
        <path d="M13,0 C20.1797017,0 26,5.82029825 26,13 C26,20.1797017 20.1797017,26 13,26 C5.82029825,26 0,20.1797017 0,13 C0,5.82029825 5.82029825,0 13,0 Z M15.5739447,7.00089077 C15.5503677,6.99673586 15.5266373,7.00738064 15.5150772,7.02729709 C15.3473767,7.31581913 15.1951418,7.6121788 15.0589531,7.91524565 C13.6950667,7.71899212 12.3077434,7.71899212 10.943857,7.91524565 C10.8067667,7.61140924 10.6520922,7.31497568 10.480539,7.02729709 C10.4684975,7.0078571 10.445133,6.99738191 10.4216408,7.00089077 C9.15624222,7.20769952 7.92459872,7.56965897 6.75770956,8.07765899 C6.74772052,8.08167318 6.73929198,8.08852715 6.73358702,8.0972751 C4.40003798,11.4006179 3.76079083,14.6227394 4.07438377,17.8049614 C4.07616618,17.8207191 4.08461684,17.8351171 4.09780222,17.844861 C5.4566062,18.7985506 6.9764449,19.5265092 8.59246092,19.997672 C8.61576826,20.0042995 8.64096444,19.9964733 8.65561421,19.9780559 C9.0026994,19.5303905 9.31024294,19.0563525 9.57511745,18.5607623 C9.58247918,18.5470065 9.58328041,18.5309223 9.57731888,18.5165701 C9.57135735,18.502218 9.55920275,18.4909693 9.54392346,18.4856639 C9.05894976,18.309767 8.58943857,18.0977274 8.13979606,17.8515351 C8.12320862,17.8422919 8.11257283,17.8258195 8.1114361,17.8076122 C8.11029937,17.7894049 8.11881127,17.7718584 8.13413278,17.7608251 C8.22874843,17.6938316 8.32172243,17.6247796 8.4129807,17.5537242 C8.42930678,17.540978 8.45184141,17.5380999 8.47114417,17.5462956 C11.4169403,18.8206759 14.6061658,18.8206759 17.5170944,17.5462956 C17.536456,17.5375714 17.5593877,17.5402038 17.5759926,17.5530567 C17.6673546,17.6244878 17.7605671,17.6937651 17.8555446,17.7608251 C17.870948,17.7717453 17.8795945,17.7892259 17.878599,17.8074345 C17.8776035,17.8256431 17.8670972,17.8421828 17.8505854,17.8515351 C17.4019653,18.0997984 16.9320286,18.3117052 16.4457845,18.4849965 C16.4305127,18.4905054 16.4184417,18.5019232 16.4125974,18.5163878 C16.4067532,18.5308524 16.4076897,18.5469925 16.4151722,18.5607623 C16.6844813,19.0535965 16.9915719,19.5270373 17.3339713,19.9772724 C17.3482233,19.996213 17.3736557,20.004393 17.3971246,19.9975849 C19.0160365,19.5280195 20.5385315,18.7999933 21.8990384,17.844861 C21.9124397,17.8355899 21.9209741,17.8212925 21.9224569,17.8056288 C22.2978868,14.126649 21.2939241,10.9309337 19.2612026,8.09794252 C19.2561996,8.08875314 19.2479087,8.08155236 19.2378148,8.07762997 C18.0707731,7.57006685 16.8392096,7.20813461 15.5739447,7.00089077 Z M10.0150476,12.4292744 C10.923163,12.4292744 11.6468696,13.2075351 11.6326961,14.1482673 C11.6326961,15.0958187 10.9160609,15.8673183 10.0150476,15.8673183 C9.12814648,15.8673183 8.3973684,15.0958187 8.3973684,14.1483254 C8.3973684,13.200832 9.11397296,12.4292744 10.0150476,12.4292744 Z M15.9960891,12.4292744 C16.9042657,12.4292744 17.6279418,13.2075351 17.6137682,14.1482673 C17.6137682,15.0958187 16.9042657,15.8673183 15.9960891,15.8673183 C15.1092186,15.8673183 14.3784405,15.0958187 14.3784405,14.1483254 C14.3784405,13.200832 15.0950451,12.4292744 15.9960891,12.4292744 Z" id="discord" fill="#999999"></path>
    </g>
</svg>