<?xml version="1.0" encoding="UTF-8"?>
<svg width="234px" height="64px" viewBox="0 0 234 64" version="1.1" xmlns="http://www.w3.org/2000/svg" xmlns:xlink="http://www.w3.org/1999/xlink">
    <title>tn Explorer</title>
    <g id="Page-1" stroke="none" stroke-width="1" fill="none" fill-rule="evenodd">
        <g id="tn-Explorer">
            <text id="Explorer" font-family="PingFangSC-Semibold, PingFang SC" font-size="40" font-weight="500" fill="#E6E6E6">
                <tspan x="76" y="46">Explorer</tspan>
            </text>
            <g id="编组" fill-rule="nonzero">
                <g id="logo">
                    <polygon id="logo-bg" points="63.9993444 10.0952338 63.9993444 0 -4.44084661e-16 0 -4.44084661e-16 10.0952338 -4.44084661e-16 53.9047543 -4.44084661e-16 64 63.9993444 64 63.9993444 53.9047543"></polygon>
                    <path d="M63.9993444,12.5290967 C63.9993444,7.56260645 59.4914506,3.55555556 53.9042065,3.55555556 C53.9042065,3.55555556 10.0951312,3.55555556 10.0951312,3.55555556 C4.50788625,3.55555556 0,7.56260645 0,12.5290967 C0,12.5290967 0,51.4708927 0,51.4708927 C0,56.4373832 4.50788625,60.4444444 10.0951312,60.4444444 C10.0951312,60.4444444 53.9042065,60.4444444 53.9042065,60.4444444 C59.4914506,60.4444444 64.0628391,56.4373832 63.9993444,51.4708927 C63.9993444,51.4708927 63.9993444,12.5290967 63.9993444,12.5290967 Z" id="Vector" fill="#333333"></path>
                    <g id="Group" transform="translate(16.063657, 13.503762)" fill="#FFFFFF">
                        <path d="M5.01582223,22.0119719 C5.01582223,24.5276263 6.79358023,26.6430596 9.26974487,27.2719727 C9.52371103,27.3291468 10.1586281,27.4434973 10.2856118,27.4434973 C11.4919479,27.6150196 12.4443156,28.5298078 12.4443156,29.6732856 C12.4443156,30.9311139 11.3649654,31.9030671 9.96815434,31.9030671 C9.71418932,31.9030671 9.33324009,31.8458908 9.33324009,31.8458908 C4.06345311,31.1598013 0,27.043283 0,22.0691483 C0,21.9548001 0,2.17261194 0,2.17261194 C0.0634914107,0.971959008 1.14284643,0 2.47616605,0 C3.80948554,0 4.95233211,1.02913645 4.95233211,2.22978931 C4.95233211,2.22978931 4.95233211,10.7487047 4.95233211,10.7487047 C4.95233211,10.7487047 9.96815434,10.7487047 9.96815434,10.7487047 C11.3649654,10.7487047 12.4443156,11.7206579 12.4443156,12.9784851 C12.4443156,14.2363123 11.3649654,15.2082746 9.96815434,15.2082746 C9.96815434,15.2082746 5.01582223,15.0939286 5.01582223,15.0939286 C5.01582223,15.0939286 5.01582223,21.9547978 5.01582223,22.0119719 Z" id="Vector"></path>
                        <path d="M35.9999548,29.7875547 C35.9999548,30.9882067 34.9205978,31.9601666 33.5872791,31.9601666 C32.2539594,31.9601666 31.1746035,30.9882067 31.1746035,29.7875547 C31.1746035,29.7875547 31.1746035,20.5825438 31.1746035,20.5825438 C31.1746035,17.78102 28.6984366,15.5512339 25.5873571,15.5512339 C22.4762771,15.5512339 20.0001198,17.78102 20.0001198,20.5825438 C20.0001198,20.5825438 20.0001198,29.7875547 20.0001198,29.7875547 C20.0001198,30.9882067 18.9207639,31.9601666 17.5874442,31.9601666 C16.2541245,31.9601666 15.1747685,30.9882067 15.1747685,29.7875547 C15.1747685,29.7875547 15.1747685,20.5253754 15.1747685,20.5253754 C15.2382599,15.3797192 19.9366246,11.2060185 25.6508518,11.2060185 C31.4285708,11.2060185 36.1269373,15.3797136 35.9999548,20.5825438 C35.9999548,20.6397179 35.9999548,29.7875547 35.9999548,29.7875547 Z" id="Vector"></path>
                    </g>
                </g>
            </g>
        </g>
    </g>
</svg>